<svg width="11" height="10" viewBox="0 0 11 10" fill="none" xmlns="http://www.w3.org/2000/svg">
<path fill-rule="evenodd" clip-rule="evenodd" d="M10.7003 1.52566C11.0201 1.13431 10.9483 0.568639 10.5399 0.262186C10.1316 -0.0442669 9.54131 0.0245497 9.22153 0.415893L4.08077 6.70712L1.78105 3.86876C1.46295 3.47616 0.872977 3.40502 0.463306 3.70986C0.0536355 4.01471 -0.0205999 4.58009 0.297497 4.97269L3.32223 8.70585C3.35158 8.74386 3.38437 8.78001 3.42055 8.81387C3.49208 8.88115 3.57285 8.93558 3.65932 8.97672C3.91561 9.09919 4.21315 9.10034 4.46655 8.99012C4.56816 8.94593 4.66267 8.88383 4.74458 8.80446C4.77558 8.77458 4.80401 8.74298 4.82982 8.70995L10.7003 1.52566Z" fill="white"/>
</svg>
