<svg width="24" height="24" viewBox="0 0 24 24" fill="none" xmlns="http://www.w3.org/2000/svg">
<path d="M12.594 21.5014C14.2842 20.0197 19.0002 15.4253 19.0002 10.2915C19.0002 6.26451 15.8662 3 12.0002 3C8.13425 3 5.00024 6.26451 5.00024 10.2915C5.00024 15.4253 9.71631 20.0197 11.4065 21.5014C11.751 21.8034 12.2495 21.8034 12.594 21.5014Z" stroke="white" stroke-width="2" stroke-linecap="round" stroke-linejoin="round"/>
<path d="M12.0002 13C13.6571 13 15.0002 11.6569 15.0002 10C15.0002 8.34315 13.6571 7 12.0002 7C10.3434 7 9.00024 8.34315 9.00024 10C9.00024 11.6569 10.3434 13 12.0002 13Z" stroke="white" stroke-width="2" stroke-linecap="round" stroke-linejoin="round"/>
</svg>
