<svg width="108" height="74" viewBox="0 0 108 74" fill="none" xmlns="http://www.w3.org/2000/svg">
<path d="M16.9111 1.66286C15.1473 4.30006 14.6594 5.50564 14.2091 8.02983C13.7212 10.554 13.9839 13.0028 14.847 14.6982L15.3724 15.8284L15.8603 14.8866C16.5733 13.4549 17.5116 8.74563 17.9243 4.22472C18.112 1.96427 18.262 0.0428698 18.187 0.00519547C18.1495 -0.0701532 17.5491 0.683333 16.9111 1.66286Z" fill="white"/>
<path d="M89.7531 1.39915C89.8657 2.30334 90.0532 4.33774 90.1659 5.88239C90.4286 9.00935 91.2166 12.6638 92.0048 14.5475L92.5302 15.8284L93.093 14.6982C94.7443 11.4582 93.9937 6.07076 91.2918 1.92658C89.8281 -0.333869 89.5279 -0.446891 89.7531 1.39915Z" fill="white"/>
<path d="M9.85588 12.0233C9.51812 13.3796 10.2312 18.4656 11.0943 20.6507C11.4696 21.6302 12.2952 23.1749 12.8956 24.0791C14.059 25.7367 16.4983 27.2813 16.761 26.5656C17.0988 25.5861 12.4828 14.4721 10.644 11.8726L10.081 11.0438L9.85588 12.0233Z" fill="white"/>
<path d="M95.8698 14.4721C93.8434 18.3526 91.7043 23.5892 91.3291 25.5484C91.1039 26.8293 91.1414 26.9046 91.9295 26.6785C93.3555 26.3018 95.8323 23.4009 96.6955 21.0651C97.9714 17.5991 98.6844 11.8726 97.8964 11.3828C97.7462 11.2698 96.808 12.6638 95.8698 14.4721Z" fill="white"/>
<path d="M19.5005 13.2289C17.8868 15.2256 16.6109 19.2945 16.9486 21.5549C17.0612 22.4968 17.4741 23.9661 17.8868 24.8327L18.5998 26.415L19.388 24.6066C20.2886 22.6474 21.0391 17.2977 20.8516 13.907L20.7389 11.7596L19.5005 13.2289Z" fill="white"/>
<path d="M86.9758 14.02C86.9758 17.8251 87.689 22.6852 88.5145 24.6065L89.3402 26.4149L90.1283 24.7195C91.2916 22.1577 91.179 18.3526 89.8656 15.64C89.3401 14.5098 88.4395 13.1535 87.9142 12.6637L86.9758 11.7972V14.02Z" fill="white"/>
<path d="M21.8273 23.4386C20.8141 25.8121 20.7014 29.4287 21.6396 31.9152C22.3902 33.9497 24.7544 37.152 25.4675 37.152C26.068 37.152 25.8428 32.8571 25.0171 29.7678C24.2291 26.7916 22.8405 22.3838 22.6153 22.12C22.5402 22.0447 22.165 22.6474 21.8273 23.4386Z" fill="white"/>
<path d="M84.3864 24.8326C83.9362 26.3018 83.2982 28.374 82.9603 29.4288C82.2098 31.727 81.8346 37.152 82.3975 37.152C83.148 37.152 85.4748 34.0251 86.2253 31.9907C86.6381 30.8605 86.976 29.0521 86.976 27.9596C86.976 26.0381 86.0753 22.6474 85.4748 22.2707C85.3246 22.1577 84.7992 23.3257 84.3864 24.8326Z" fill="white"/>
<path d="M17.0238 25.0962C17.1364 25.6237 17.8869 27.3944 18.6751 29.052C23.4785 39.1488 31.547 45.6665 42.693 48.4167L47.0087 49.4715L42.5053 49.6599C38.6398 49.8482 32.9732 50.6771 31.0593 51.3176C30.0836 51.6566 34.662 53.2767 37.8893 53.7664C39.5405 53.9925 41.9423 54.1054 43.2183 53.9548C46.896 53.5781 51.6246 50.8655 50.1985 49.9613C49.448 49.4715 49.8233 49.5092 51.3244 50.0367C52.4877 50.4134 52.5253 50.4888 51.8874 50.9785C51.3619 51.3176 51.2869 51.5813 51.5871 51.8827C51.8874 52.1841 52.2626 52.1088 52.9756 51.6566C53.9138 51.0538 53.9888 51.0538 54.927 51.6566C55.6401 52.1088 56.0154 52.1841 56.3156 51.8827C56.6158 51.5813 56.5408 51.3176 56.0154 50.9785C55.3774 50.4888 55.4149 50.4134 56.5783 50.0367C58.0795 49.5092 58.4547 49.4715 57.7041 49.9613C56.2406 50.8655 61.0441 53.5781 64.8345 53.9548C66.1855 54.0678 68.5873 53.9925 70.1634 53.7287C73.3158 53.2767 77.7817 51.6566 76.8435 51.3176C74.9294 50.6771 69.2628 49.8482 65.3973 49.6599L60.894 49.4715L65.0596 48.4167C67.3489 47.8516 70.0509 47.0603 71.0266 46.6083C73.1281 45.6665 73.5035 45.6288 72.4901 46.3446C71.8146 46.8721 71.8521 46.9097 73.1657 47.4748C77.106 49.1701 83.5985 46.8344 88.2895 42.0497C89.4529 40.8441 89.9032 40.166 89.5279 40.166C87.8766 40.166 78.4571 43.2929 75.3423 44.8752C72.6778 46.2316 73.0155 45.8171 75.9803 44.0842C80.5962 41.3716 85.8877 35.7205 88.5897 30.559C89.7531 28.3739 91.1791 24.6818 90.9915 24.4934C90.9164 24.4181 90.3911 25.4731 89.8656 26.8669C87.5763 32.6688 82.6227 38.6966 77.031 42.4264L74.0287 44.4232L75.7551 42.7656C78.5322 40.0907 79.5829 37.9432 79.7706 34.4017C79.8831 32.4051 79.8081 31.4632 79.5829 31.6138C79.3578 31.7646 77.8942 33.573 76.318 35.6073C73.3908 39.4502 71.8146 42.125 71.3644 44.0842C71.1391 45.0637 71.1766 45.139 72.0023 44.8752C72.5653 44.687 72.7528 44.7246 72.5278 44.9507C71.5519 45.8925 62.9205 48.2659 61.5695 48.0022C61.1943 47.9269 61.7195 47.6255 62.7704 47.3241C65.2473 46.646 68.925 43.067 69.9007 40.4297C70.276 39.4502 70.4637 38.546 70.3887 38.4331C70.1634 38.207 59.4304 44.3856 58.3045 45.4027C57.6665 45.9679 56.5783 47.7762 56.5783 48.2659C56.5783 48.379 56.8786 48.4543 57.2538 48.492C57.5915 48.492 56.9911 48.8311 55.9029 49.2078C54.1015 49.8482 53.8388 49.886 52.2251 49.3209C51.0992 48.9442 50.6488 48.6428 50.949 48.4543C52.1874 47.7009 48.5849 44.2348 44.1941 41.8991C41.6046 40.5427 38.715 38.8851 38.2646 38.546C37.3639 37.8303 37.3264 38.6213 38.1896 40.7311C39.3155 43.4814 42.6178 46.6083 45.1698 47.3617C46.2205 47.6255 46.7085 47.9269 46.3331 48.0022C44.9821 48.2659 36.3507 45.8925 35.375 44.9507C35.1498 44.7246 35.3375 44.687 35.9004 44.8752C36.7259 45.139 36.7634 45.0637 36.5009 43.8581C36.1255 42.0497 34.4743 39.3749 31.1718 35.08L28.2447 31.3124L28.132 33.3469C27.9445 36.9637 30.0461 41.5224 32.6729 43.2553C33.3484 43.6696 33.5736 43.9334 33.1984 43.7828C31.7722 43.3306 27.7567 40.2413 25.3549 37.8303C22.653 35.08 20.2137 31.5385 18.6375 28.1102C18.1121 26.9799 17.4741 25.6237 17.2489 25.0962L16.7986 24.1544L17.0238 25.0962Z" fill="white"/>
<path d="M11.1693 26.6409C12.9706 32.8571 18.825 38.659 23.3284 38.659H24.3416L23.1032 36.9261C21.6396 34.8539 15.0347 28.4492 12.5578 26.6787L10.8315 25.4731L11.1693 26.6409Z" fill="white"/>
<path d="M94.8568 27.093C92.4175 28.9391 85.5874 35.6828 84.349 37.491L83.4858 38.7721L85.1372 38.5837C87.614 38.3199 89.3777 37.3028 91.8921 34.8163C93.3557 33.3093 94.5191 31.6893 95.3823 29.8809C96.433 27.6582 97.2587 25.3976 96.9959 25.5107C96.9584 25.5107 95.9827 26.2265 94.8568 27.093Z" fill="white"/>
<path d="M19.4255 41.8991C23.9664 46.6083 31.3594 49.3209 34.812 47.5125C35.4499 47.1734 35.9379 46.8344 35.9379 46.7589C35.9379 46.4575 30.684 43.9334 28.1319 42.9915C24.9046 41.8238 19.1628 40.166 18.3748 40.166C17.9619 40.166 18.3373 40.7688 19.4255 41.8991Z" fill="white"/>
<path d="M65.7758 5.09395V30.3032L69.0856 32.1451H61.2069L64.5166 30.3032V5.0217L54.5152 32.1451L44.55 4.04657V30.7365L47.8597 32.1451H38.542L41.8517 30.7365V4.66054L38.542 3.25201H49.0829L48.5792 11.8116L53.6159 26.0413L61.7466 3.25201H69.0856L65.7758 5.09395Z" fill="white"/>
<path d="M7.8354 66.2192V73.4703L8.78742 74H6.5212L7.47323 73.4703V66.1984L4.59647 74L1.73007 65.9179V73.5949L2.6821 74H0.00195312L0.953971 73.5949V66.0945L0.00195312 65.6893H3.03393L2.88905 68.1514L4.33777 72.2444L6.67642 65.6893H8.78742L7.8354 66.2192Z" fill="white"/>
<path d="M10.8351 73.5949L11.7871 74H9.10693L10.0589 73.5949V66.0945L9.10693 65.6893H11.7871L10.8351 66.0945V73.5949Z" fill="white"/>
<path d="M16.3125 66.936L14.3567 69.8134L18.2061 74H16.9852L14.2119 70.0213H13.7152V73.5949L14.6672 74H11.9871L12.9391 73.5949V66.0945L11.9871 65.6893H14.6672L13.7152 66.0945V69.6577H14.2119C14.4395 69.2491 14.5672 69.0205 14.5947 68.972C15.0501 68.1617 15.4053 67.5766 15.6606 67.2164C15.9227 66.8493 16.2435 66.5446 16.623 66.3022C17.0024 66.0598 17.5302 65.8555 18.2061 65.6893V66.936H16.3125Z" fill="white"/>
<path d="M24.9181 73.5949L25.8702 74H23.19L24.1419 73.5949V70.0213H20.3443V73.5949L21.2963 74H18.6162L19.5681 73.5949V66.0945L18.6162 65.6893H21.2963L20.3443 66.0945V69.6577H24.1419V66.0945L23.19 65.6893H25.8702L24.9181 66.0945V73.5949Z" fill="white"/>
<path d="M29.1342 65.6893L32.1973 74H30.521L31.1418 73.2729L30.3656 71.2783H27.5096L27.4269 71.5379L27.5718 74H26.1851L29.1342 65.6893ZM27.6442 70.9147H30.2208L28.8756 67.4449L27.6442 70.9147Z" fill="white"/>
<path d="M34.2395 73.5949L35.1914 74H32.5112L33.4633 73.5949V66.0945L32.5112 65.6893H35.1914L34.2395 66.0945V73.5949Z" fill="white"/>
<path d="M38.6923 73.6364L40.6792 72.9715V74H35.3914L36.3433 73.5949V66.0945L35.3914 65.6893H38.0715L37.1194 66.0945V73.6364H38.6923Z" fill="white"/>
<path d="M48.3267 66.936L46.3709 69.8134L50.2204 74H48.9993L46.226 70.0213H45.7293V73.5949L46.6814 74H44.0012L44.9531 73.5949V66.0945L44.0012 65.6893H46.6814L45.7293 66.0945V69.6577H46.226C46.4536 69.2491 46.5813 69.0205 46.6089 68.972C47.0641 68.1617 47.4195 67.5766 47.6747 67.2164C47.9369 66.8493 48.2577 66.5446 48.637 66.3022C49.0166 66.0598 49.5442 65.8555 50.2204 65.6893V66.936H48.3267Z" fill="white"/>
<path d="M52.3584 73.5949L53.3105 74H50.6304L51.5824 73.5949V66.0945L50.6304 65.6893H53.3105L52.3584 66.0945V73.5949Z" fill="white"/>
<path d="M53.3603 70.6549C53.7879 71.7145 54.2363 72.4763 54.7054 72.9404C55.1745 73.4044 55.7196 73.6364 56.3405 73.6364C57.0164 73.6364 57.527 73.5014 57.8719 73.2313C58.2239 72.9543 58.3997 72.5111 58.3997 71.9016C58.3997 71.7007 58.348 71.4965 58.2444 71.2886C58.141 71.0739 57.9754 70.8801 57.7477 70.707C57.527 70.5338 57.2442 70.4092 56.8993 70.3328L55.2435 69.9797C54.5192 69.8274 54.0121 69.5676 53.7223 69.2007C53.4396 68.8265 53.2981 68.3142 53.2981 67.6631C53.2981 67.2475 53.3981 66.8909 53.5982 66.5931C53.8052 66.2953 54.0777 66.0703 54.4158 65.9179C54.7607 65.7654 55.1366 65.6893 55.5436 65.6893C55.8609 65.6893 56.1611 65.7135 56.4439 65.762C56.7337 65.8105 57.0889 65.8832 57.5097 65.9802L58.3583 66.1672L58.3686 68.7435C58.079 68.1202 57.8099 67.6216 57.5616 67.2475C57.3131 66.8667 57.0269 66.5723 56.7027 66.3646C56.3783 66.1568 55.9921 66.0529 55.5436 66.0529C55.0539 66.0529 54.6571 66.181 54.3536 66.4374C54.057 66.6935 53.9087 67.1022 53.9087 67.6631C53.9087 68.0025 54.026 68.3037 54.2604 68.5669C54.5019 68.8231 54.8296 68.9962 55.2435 69.0863L56.8888 69.4395C57.4062 69.5504 57.8168 69.6993 58.1202 69.8862C58.4308 70.0732 58.6549 70.3294 58.793 70.6549C58.9379 70.9735 59.0101 71.389 59.0101 71.9016C59.0101 72.3171 58.8998 72.6842 58.6791 73.0028C58.4652 73.3143 58.1548 73.5602 57.7477 73.7404C57.3477 73.9135 56.8786 74 56.3405 74C55.8989 74 55.4747 73.9618 55.0676 73.8857C54.6607 73.8026 54.0984 73.6364 53.3808 73.3871L53.3603 70.6549Z" fill="white"/>
<path d="M60.7359 73.5949L61.6879 74H59.0078L59.9599 73.5949V66.0945L59.0078 65.6893H61.6879L60.7359 66.0945V73.5949Z" fill="white"/>
<path d="M67.9 65.6893V68.1722L66.6064 66.0529H63.6159V69.4706H65.2198L65.9338 68.8059V70.4991L65.2198 69.8342H63.6159V73.6364H66.6064L67.9 71.5171V74H61.8877L62.8398 73.5949V66.0945L61.8877 65.6893H67.9Z" fill="white"/>
<path d="M74.3272 65.6893L71.2641 74L68.3149 65.6893H69.7017L69.5463 68.2138L70.9433 72.2444L73.0751 66.4165L72.4438 65.6893H74.3272Z" fill="white"/>
<path d="M80.9533 73.6364L82.9402 72.9715V74H77.6523L78.6042 73.5949V66.0945L77.6523 65.6893H80.3325L79.3804 66.0945V73.6364H80.9533Z" fill="white"/>
<path d="M86.301 65.6893L89.3641 74H87.6877L88.3086 73.2729L87.5326 71.2783H84.6764L84.5937 71.5379L84.7385 74H83.3518L86.301 65.6893ZM84.811 70.9147H87.3877L86.0424 67.4449L84.811 70.9147Z" fill="white"/>
<path d="M89.6391 70.6549C90.0667 71.7145 90.5153 72.4763 90.9844 72.9404C91.4535 73.4044 91.9984 73.6364 92.6193 73.6364C93.2954 73.6364 93.8058 73.5014 94.1507 73.2313C94.5027 72.9543 94.6786 72.5111 94.6786 71.9016C94.6786 71.7007 94.6268 71.4965 94.5234 71.2886C94.4198 71.0739 94.2543 70.8801 94.0266 70.707C93.8058 70.5338 93.523 70.4092 93.1781 70.3328L91.5225 69.9797C90.798 69.8274 90.2909 69.5676 90.0013 69.2007C89.7184 68.8265 89.5769 68.3142 89.5769 67.6631C89.5769 67.2475 89.6769 66.8909 89.8771 66.5931C90.084 66.2953 90.3565 66.0703 90.6946 65.9179C91.0395 65.7654 91.4154 65.6893 91.8225 65.6893C92.1399 65.6893 92.44 65.7135 92.7227 65.762C93.0125 65.8105 93.3679 65.8832 93.7887 65.9802L94.6371 66.1672L94.6476 68.7435C94.3578 68.1202 94.0887 67.6216 93.8404 67.2475C93.5921 66.8667 93.3057 66.5723 92.9815 66.3646C92.6573 66.1568 92.2709 66.0529 91.8225 66.0529C91.3327 66.0529 90.9361 66.181 90.6324 66.4374C90.3358 66.6935 90.1875 67.1022 90.1875 67.6631C90.1875 68.0025 90.3048 68.3037 90.5394 68.5669C90.7807 68.8231 91.1085 68.9962 91.5225 69.0863L93.1677 69.4395C93.6851 69.5504 94.0956 69.6993 94.3992 69.8862C94.7096 70.0732 94.9337 70.3294 95.0718 70.6549C95.2167 70.9735 95.2891 71.389 95.2891 71.9016C95.2891 72.3171 95.1787 72.6842 94.9579 73.0028C94.7442 73.3143 94.4337 73.5602 94.0266 73.7404C93.6265 73.9135 93.1574 74 92.6193 74C92.1777 74 91.7535 73.9618 91.3464 73.8857C90.9395 73.8026 90.3772 73.6364 89.6598 73.3871L89.6391 70.6549Z" fill="white"/>
<path d="M101.299 65.6893V68.1722L100.005 66.0529H97.0144V69.4706H98.6185L99.3325 68.8059V70.4991L98.6185 69.8342H97.0144V73.6364H100.005L101.299 71.5171V74H95.2864L96.2384 73.5949V66.0945L95.2864 65.6893H101.299Z" fill="white"/>
<path d="M107.987 74H106.311L106.911 73.5949L104.562 70.3953H103.279V73.6052L104.179 74H101.613L102.513 73.6052V66.084L101.613 65.6893H104.955C105.679 65.6893 106.259 65.7725 106.693 65.9386C107.128 66.1048 107.442 66.3681 107.635 66.7281C107.828 67.0883 107.925 67.5627 107.925 68.1514C107.925 68.6639 107.839 69.0795 107.666 69.398C107.494 69.7096 107.218 69.9451 106.838 70.1043C106.466 70.2637 105.962 70.3571 105.327 70.3849L107.987 74ZM104.955 70.0316C105.597 70.0316 106.076 69.9451 106.393 69.772C106.718 69.5989 106.925 69.3807 107.014 69.1174C107.111 68.8544 107.159 68.5322 107.159 68.1514C107.159 67.715 107.111 67.3515 107.014 67.0606C106.925 66.7697 106.718 66.5343 106.393 66.3541C106.076 66.1672 105.597 66.0737 104.955 66.0737H103.279V70.0316H104.955Z" fill="white"/>
</svg>
