<svg width="32" height="32" viewBox="0 0 32 32" fill="none" xmlns="http://www.w3.org/2000/svg">
<path d="M8.51544 9.65159C9.25991 11.5717 10.2034 13.3821 11.4461 15.0073C11.6109 15.2236 11.8186 15.4159 12.0375 15.5724C12.3572 15.8017 12.6588 15.7211 12.7888 15.3392C12.9263 14.9384 13.0524 14.1261 13.0599 13.7052C13.0805 12.6055 13.0569 11.8848 13.0003 10.7864C12.9636 10.0829 12.7242 9.46514 11.7334 9.27869C11.4274 9.22089 11.399 8.95784 11.5955 8.69543C12.0048 8.14912 12.5749 8.06205 13.1931 8.0276C14.1951 7.97107 15.2008 8.0172 16.204 8.0276C16.6126 8.03151 17.0237 8.0659 17.4261 8.15752C17.951 8.27705 18.2321 8.66162 18.3186 9.19682C18.3634 9.4729 18.3865 9.75674 18.3802 10.0361C18.3541 11.2365 18.2987 12.4363 18.2856 13.636C18.2801 14.107 18.313 14.5896 18.4094 15.0482C18.5444 15.6874 18.9611 15.8478 19.3871 15.386C19.9282 14.7995 20.4053 14.1395 20.853 13.4692C21.6665 12.2499 22.2741 10.9118 22.7972 9.53213C23.0677 8.82023 23.2749 8.6656 24.0081 8.66368C25.3863 8.66041 26.7646 8.65912 28.1428 8.66368C28.3872 8.66496 28.6429 8.68902 28.8736 8.7657C29.248 8.89042 29.3967 9.20935 29.3089 9.61407C29.1043 10.5625 28.6136 11.3686 28.0881 12.1435C27.2447 13.3868 26.3609 14.6002 25.4977 15.8292C25.3876 15.9857 25.2906 16.1527 25.2004 16.3222C24.8776 16.9315 24.9 17.2731 25.3708 17.7804C26.1202 18.5879 26.9226 19.3433 27.6484 20.1728C28.1758 20.7763 28.664 21.431 29.082 22.1202C29.6106 22.9919 29.2841 23.813 28.2965 23.9591C27.6752 24.0507 24.6402 23.9598 24.4833 23.9591C23.6674 23.9553 22.9521 23.6597 22.3762 23.0809C21.7356 22.4366 21.1534 21.7298 20.5383 21.0575C20.353 20.8548 20.1552 20.6606 19.9419 20.491C19.4387 20.0902 18.9449 20.1792 18.7098 20.7964C18.5089 21.3264 18.3354 22.7184 18.3273 22.8373C18.285 23.4589 17.9063 23.8552 17.2395 23.8935C15.3146 24.0026 13.4493 23.7785 11.7117 22.8061C10.2389 21.9825 9.06285 20.8178 8.0441 19.4595C6.4258 17.3022 5.14756 14.9308 3.98056 12.4897C3.92091 12.3649 2.73892 9.73801 2.70715 9.61393C2.60157 9.19846 2.70007 8.80158 3.03617 8.66496C3.2457 8.57982 7.14279 8.66468 7.20762 8.66831C7.82946 8.70348 8.25349 8.97749 8.51544 9.65159Z" stroke="white" stroke-width="2"/>
</svg>
